<?xml version="1.0" encoding="utf-8"?> <!-- Generator: IcoMoon.io --> <!DOCTYPE svg PUBLIC "-//W3C//DTD SVG 1.1//EN" "http://www.w3.org/Graphics/SVG/1.1/DTD/svg11.dtd"> <svg width="512" height="512" viewBox="0 0 512 512" xmlns="http://www.w3.org/2000/svg" xmlns:xlink="http://www.w3.org/1999/xlink" fill="#919191"><path d="M 256.00,0.00C 114.624,0.00,0.00,114.608,0.00,256.00s 114.624,256.00, 256.00,256.00c 141.376,0.00, 256.00-114.608, 256.00-256.00 S 397.376,0.00, 256.00,0.00z M 256.00,448.00C 149.968,448.00, 64.00,362.032, 64.00,256.00S 149.968,64.00, 256.00,64.00c 106.032,0.00, 192.00,85.968, 192.00,192.00S 362.032,448.00, 256.00,448.00z M 256.00,96.00 C 167.632,96.00, 96.00,167.648, 96.00,256.00s 71.632,160.00, 160.00,160.00c 88.368,0.00, 160.00-71.648, 160.00-160.00S 344.368,96.00, 256.00,96.00z M 192.00,352.00c-17.664,0.00-32.00-14.336-32.00-32.00s 14.336-32.00, 32.00-32.00 s 32.00,14.336, 32.00,32.00S 209.664,352.00, 192.00,352.00z M 192.00,224.00c-17.664,0.00-32.00-14.336-32.00-32.00s 14.336-32.00, 32.00-32.00s 32.00,14.336, 32.00,32.00S 209.664,224.00, 192.00,224.00z M 320.00,352.00 c-17.664,0.00-32.00-14.336-32.00-32.00s 14.336-32.00, 32.00-32.00s 32.00,14.336, 32.00,32.00S 337.664,352.00, 320.00,352.00z M 320.00,224.00c-17.664,0.00-32.00-14.336-32.00-32.00s 14.336-32.00, 32.00-32.00s 32.00,14.336, 32.00,32.00 S 337.664,224.00, 320.00,224.00z" ></path></svg>