<?xml version="1.0" encoding="utf-8"?> <!-- Generator: IcoMoon.io --> <!DOCTYPE svg PUBLIC "-//W3C//DTD SVG 1.1//EN" "http://www.w3.org/Graphics/SVG/1.1/DTD/svg11.dtd"> <svg width="512" height="512" viewBox="0 0 512 512" xmlns="http://www.w3.org/2000/svg" xmlns:xlink="http://www.w3.org/1999/xlink" fill="#919191"><path d="M 297.163,51.403L 277.333,205.984C 277.333,221.867, 290.133,234.667, 306.016,234.667l 154.56-19.84 c 4.587-0.64, 9.173-2.773, 12.693-6.40c 8.96-8.96, 8.96-23.349,0.00-32.32l-25.813-25.813l 57.387-57.28c 9.493-9.493, 9.493-24.853,0.00-34.347L 453.333,7.147 c-9.504-9.493-24.853-9.493-34.357,0.00L 361.707,64.427l-25.813-25.707c-8.96-8.96-23.36-8.96-32.32,0.00C 299.947,42.24, 297.813,46.827, 297.163,51.403z M 214.827,51.403c-0.64-4.587-2.773-9.163-6.40-12.683c-8.96-8.96-23.36-8.96-32.32,0.00l-25.813,25.707L 93.013,7.147c-9.493-9.493-24.853-9.493-34.347,0.00 L 7.147,58.667c-9.504,9.493-9.504,24.853,0.00,34.347l 57.387,57.28l-25.813,25.813c-8.96,8.971-8.96,23.36,0.00,32.32c 3.52,3.627, 8.107,5.76, 12.683,6.40 L 205.984,234.667C 221.867,234.667, 234.667,221.867, 234.667,205.984L 214.827,51.403z M 297.163,460.597c 0.651,4.587, 2.784,9.163, 6.411,12.683c 8.96,8.96, 23.36,8.96, 32.32,0.00 l 25.813-25.707l 57.269,57.28c 9.504,9.493, 24.853,9.493, 34.357,0.00l 51.52-51.52c 9.493-9.493, 9.493-24.853,0.00-34.347l-57.387-57.28l 25.813-25.813 c 8.96-8.96, 8.96-23.36,0.00-32.32c-3.52-3.627-8.117-5.76-12.693-6.40L 306.016,277.333C 290.133,277.333, 277.333,290.133, 277.333,306.016L 297.163,460.597z M 214.827,460.597 L 234.667,306.016C 234.667,290.133, 221.867,277.333, 205.984,277.333L 51.403,297.173c-4.587,0.64-9.163,2.773-12.683,6.40c-8.96,8.96-8.96,23.36,0.00,32.32l 25.813,25.813 l-57.387,57.28c-9.504,9.493-9.504,24.853,0.00,34.347l 51.52,51.52c 9.493,9.493, 24.853,9.493, 34.347,0.00l 57.28-57.28l 25.813,25.707c 8.96,8.96, 23.36,8.96, 32.32,0.00 C 212.053,469.76, 214.187,465.173, 214.827,460.597z" ></path></svg>