<?xml version="1.0" encoding="utf-8"?> <!-- Generator: IcoMoon.io --> <!DOCTYPE svg PUBLIC "-//W3C//DTD SVG 1.1//EN" "http://www.w3.org/Graphics/SVG/1.1/DTD/svg11.dtd"> <svg width="500.00000000000006" height="500" viewBox="0 0 500 500" xmlns="http://www.w3.org/2000/svg" xmlns:xlink="http://www.w3.org/1999/xlink" fill="#919191"><path d="M 219.325,45.00c 111.15,0.00, 201.525,89.05, 204.225,199.875L 485.00,244.875 l-91.975,102.525l-91.975-102.525l 71.40,0.00 C 369.775,162.35, 302.275,96.25, 219.325,96.25 c-84.65,0.00-153.25,68.825-153.25,153.75s 68.60,153.75, 153.25,153.75c 33.95,0.00, 65.30-11.10, 90.70-29.825l 35.125,37.60 C 310.475,438.75, 266.80,455.00, 219.325,455.00C 106.475,455.00, 15.00,363.225, 15.00,250.00C 15.00,136.775, 106.475,45.00, 219.325,45.00z" ></path></svg>