<?xml version="1.0" encoding="utf-8"?> <!-- Generator: IcoMoon.io --> <!DOCTYPE svg PUBLIC "-//W3C//DTD SVG 1.1//EN" "http://www.w3.org/Graphics/SVG/1.1/DTD/svg11.dtd"> <svg width="512" height="512" viewBox="0 0 512 512" xmlns="http://www.w3.org/2000/svg" xmlns:xlink="http://www.w3.org/1999/xlink" fill="#919191"><path d="M 19.829,328.736L0.00,483.317C0.00,499.20, 12.80,512.00, 28.683,512.00l 154.56-19.84 c 4.587-0.64, 9.173-2.773, 12.693-6.40c 8.96-8.96, 8.96-23.349,0.00-32.32l-25.813-25.813l 57.387-57.28c 9.493-9.493, 9.493-24.853,0.00-34.347l-51.52-51.52 c-9.504-9.493-24.853-9.493-34.357,0.00L 84.373,341.76l-25.813-25.707c-8.96-8.96-23.36-8.96-32.32,0.00C 22.613,319.573, 20.48,324.16, 19.829,328.736z M 492.16,328.736c-0.64-4.587-2.773-9.163-6.40-12.683c-8.96-8.96-23.36-8.96-32.32,0.00l-25.813,25.707l-57.28-57.28c-9.493-9.493-24.853-9.493-34.347,0.00 l-51.52,51.52c-9.504,9.493-9.504,24.853,0.00,34.347l 57.387,57.28l-25.813,25.813c-8.96,8.971-8.96,23.36,0.00,32.32c 3.52,3.627, 8.107,5.76, 12.683,6.40 L 483.317,512.00C 499.20,512.00, 512.00,499.20, 512.00,483.317L 492.16,328.736z M 19.829,183.264C 20.48,187.84, 22.613,192.427, 26.24,195.947c 8.96,8.96, 23.36,8.96, 32.32,0.00 l 25.813-25.707l 57.269,57.28c 9.504,9.493, 24.853,9.493, 34.357,0.00l 51.52-51.52c 9.493-9.493, 9.493-24.853,0.00-34.347l-57.387-57.28l 25.813-25.813 c 8.96-8.96, 8.96-23.36,0.00-32.32c-3.52-3.627-8.117-5.76-12.693-6.40L 28.683,0.00C 12.80,0.00,0.00,12.80,0.00,28.683L 19.829,183.264z M 492.16,183.264L 512.00,28.683 C 512.00,12.80, 499.20,0.00, 483.317,0.00L 328.736,19.84c-4.587,0.64-9.163,2.773-12.683,6.40c-8.96,8.96-8.96,23.36,0.00,32.32l 25.813,25.813l-57.387,57.28 c-9.504,9.493-9.504,24.853,0.00,34.347l 51.52,51.52c 9.493,9.493, 24.853,9.493, 34.347,0.00l 57.28-57.28l 25.813,25.707c 8.96,8.96, 23.36,8.96, 32.32,0.00 C 489.387,192.427, 491.52,187.84, 492.16,183.264z" ></path></svg>