<?xml version="1.0" encoding="utf-8"?>
<!-- Generated by IcoMoon.io -->
<!DOCTYPE svg PUBLIC "-//W3C//DTD SVG 1.1//EN" "http://www.w3.org/Graphics/SVG/1.1/DTD/svg11.dtd">
<svg version="1.1" xmlns="http://www.w3.org/2000/svg" xmlns:xlink="http://www.w3.org/1999/xlink" width="512" height="512" viewBox="0 0 512 512" fill="#919191">
<g id="icomoon-ignore">
</g>
<path d="M399.798 8.104c-45.263 0-74.31-8.104-120.924-8.104-150.642 0-220.896 85.792-220.896 172.936 0 51.339 24.32 68.229 72.282 68.229-3.379-7.432-9.457-15.54-9.457-52.017 0-102.005 38.503-131.729 87.818-133.755 0 0-40.459 396.687-157.889 444.271v12.336h158.297l54.013-256h98.922l22.036-64h-107.454l25.972-123.095c29.723 6.078 58.771 12.158 83.766 12.158 31.074 0 59.447-9.457 74.984-81.063-18.913 6.080-39.181 8.104-61.47 8.104z"></path>
</svg>
