<?xml version="1.0" encoding="utf-8"?> <!-- Generator: IcoMoon.io --> <!DOCTYPE svg PUBLIC "-//W3C//DTD SVG 1.1//EN" "http://www.w3.org/Graphics/SVG/1.1/DTD/svg11.dtd"> <svg width="484" height="484" viewBox="0 0 484 484" xmlns="http://www.w3.org/2000/svg" xmlns:xlink="http://www.w3.org/1999/xlink" fill="#919191"><path d="M 440.00,484.00L 44.00,484.00 c-24.288,0.00-44.00-19.712-44.00-44.00L0.00,44.00 c0.00-24.288, 19.712-44.00, 44.00-44.00l 396.00,0.00 c 24.288,0.00, 44.00,19.712, 44.00,44.00l0.00,396.00 C 484.00,464.288, 464.288,484.00, 440.00,484.00z M 440.00,44.00L 44.00,44.00 l0.00,396.00 l 396.00,0.00 L 440.00,44.00 z M 220.00,330.00l 66.00-88.00l 110.00,154.00L 88.00,396.00 l 88.00-110.00L 220.00,330.00z M 176.00,198.00C 151.712,198.00, 132.00,178.288, 132.00,154.00s 19.712-44.00, 44.00-44.00s 44.00,19.712, 44.00,44.00 S 200.288,198.00, 176.00,198.00z" ></path></svg>