<?xml version="1.0" encoding="utf-8"?> <!-- Generator: IcoMoon.io --> <!DOCTYPE svg PUBLIC "-//W3C//DTD SVG 1.1//EN" "http://www.w3.org/Graphics/SVG/1.1/DTD/svg11.dtd"> <svg width="512" height="512" viewBox="0 0 512 512" xmlns="http://www.w3.org/2000/svg" xmlns:xlink="http://www.w3.org/1999/xlink" fill="#919191"><path d="M 448.00,512.00L 64.00,512.00 c-35.328,0.00-64.00-28.672-64.00-64.00L0.00,64.00 c0.00-35.328, 28.672-64.00, 64.00-64.00l 384.00,0.00 c 35.328,0.00, 64.00,28.672, 64.00,64.00l0.00,384.00 C 512.00,483.328, 483.328,512.00, 448.00,512.00z M 448.00,96.00c0.00-17.664-14.304-32.00-32.00-32.00L 96.00,64.00 C 78.336,64.00, 64.00,78.336, 64.00,96.00l0.00,224.00 c0.00,17.696, 14.336,32.00, 32.00,32.00l 32.00,0.00 c 31.808,0.00, 32.00,32.00, 32.00,32.00l0.00,16.00 L 160.00,416.00 c0.00,17.696, 14.336,32.00, 32.00,32.00l 128.00,0.00 c 17.696,0.00, 32.00-14.304, 32.00-32.00l0.00-16.00 L 352.00,384.00 c0.00,0.00, 4.32-32.00, 32.00-32.00l 32.00,0.00 c 17.696,0.00, 32.00-14.304, 32.00-32.00L 448.00,96.00 z M 288.00,384.00L 224.00,384.00 L 224.00,256.00 L 128.00,256.00 l 128.00-128.00l 128.00,128.00L 288.00,256.00 L 288.00,384.00 z" ></path></svg>