<?xml version="1.0" encoding="utf-8"?> <!-- Generator: IcoMoon.io --> <!DOCTYPE svg PUBLIC "-//W3C//DTD SVG 1.1//EN" "http://www.w3.org/Graphics/SVG/1.1/DTD/svg11.dtd"> <svg width="448" height="448" viewBox="0 0 448 448" xmlns="http://www.w3.org/2000/svg" xmlns:xlink="http://www.w3.org/1999/xlink" fill="#919191"><path d="M 448.00,224.00q0.00,6.50 -4.75,11.25l-64.00,64.00q-4.75,4.75 -11.25,4.75t-11.25-4.75t-4.75-11.25l0.00-32.00 l-96.00,0.00 l0.00,96.00 l 32.00,0.00 q 6.50,0.00 11.25,4.75t 4.75,11.25t-4.75,11.25l-64.00,64.00q-4.75,4.75 -11.25,4.75t-11.25-4.75l-64.00-64.00q-4.75-4.75 -4.75-11.25t 4.75-11.25t 11.25-4.75l 32.00,0.00 l0.00-96.00 l-96.00,0.00 l0.00,32.00 q0.00,6.50 -4.75,11.25t-11.25,4.75t-11.25-4.75l-64.00-64.00q-4.75-4.75 -4.75-11.25 t 4.75-11.25l 64.00-64.00q 4.75-4.75 11.25-4.75t 11.25,4.75t 4.75,11.25l0.00,32.00 l 96.00,0.00 l0.00-96.00 l-32.00,0.00 q-6.50,0.00 -11.25-4.75t-4.75-11.25t 4.75-11.25l 64.00-64.00q 4.75-4.75 11.25-4.75t 11.25,4.75l 64.00,64.00q 4.75,4.75 4.75,11.25t-4.75,11.25t-11.25,4.75l-32.00,0.00 l0.00,96.00 l 96.00,0.00 l0.00-32.00 q0.00-6.50 4.75-11.25t 11.25-4.75t 11.25,4.75l 64.00,64.00q 4.75,4.75 4.75,11.25z" ></path></svg>