<?xml version="1.0" encoding="utf-8"?> <!-- Generator: IcoMoon.io --> <!DOCTYPE svg PUBLIC "-//W3C//DTD SVG 1.1//EN" "http://www.w3.org/Graphics/SVG/1.1/DTD/svg11.dtd"> <svg width="512" height="512" viewBox="0 0 512 512" xmlns="http://www.w3.org/2000/svg" xmlns:xlink="http://www.w3.org/1999/xlink" fill="#919191"><path d="M 224.00,357.333c0.00,14.72, 11.947,26.667, 26.667,26.667s 26.667-11.947, 26.667-26.667S 265.387,330.667, 250.667,330.667 S 224.00,342.613, 224.00,357.333z M 42.667,0.00C 19.093,0.00,0.00,19.093,0.00,42.667l0.00,426.667 c0.00,23.573, 19.093,42.667, 42.667,42.667l 426.667,0.00 c 23.573,0.00, 42.667-19.093, 42.667-42.667L 512.00,105.813 c0.00-14.293-5.643-26.987-14.72-36.16L 443.093,15.68 C 433.504,5.973, 420.053,0.00, 405.333,0.00L 42.667,0.00 z M 76.80,53.333L 106.667,53.333 l0.00,83.20 c0.00,13.013, 10.453,23.467, 23.467,23.467l 27.733,0.00 c 13.013,0.00, 23.467-10.453, 23.467-23.467L 181.333,53.333 l 200.533,0.00 C 394.88,53.333, 405.333,63.787, 405.333,76.80 l0.00,102.40 c0.00,13.013-10.453,23.467-23.467,23.467L 76.80,202.667 C 63.787,202.667, 53.333,192.213, 53.333,179.20L 53.333,76.80 C 53.333,63.787, 63.787,53.333, 76.80,53.333z M 181.333,357.333c0.00-38.293, 31.04-69.333, 69.333-69.333 s 69.333,31.04, 69.333,69.333S 288.96,426.667, 250.667,426.667S 181.333,395.627, 181.333,357.333z" ></path></svg>