<?xml version="1.0" encoding="utf-8"?> <!-- Generator: IcoMoon.io --> <!DOCTYPE svg PUBLIC "-//W3C//DTD SVG 1.1//EN" "http://www.w3.org/Graphics/SVG/1.1/DTD/svg11.dtd"> <svg width="484" height="484" viewBox="0 0 484 484" xmlns="http://www.w3.org/2000/svg" xmlns:xlink="http://www.w3.org/1999/xlink" fill="#919191"><path d="M 440.00,396.00l-151.844,0.00 C 286.924,402.666, 286.00,409.838, 286.00,418.00c0.00,44.00, 44.00,44.00, 44.00,44.00c 12.166,0.00, 22.00,4.95, 22.00,11.00 c0.00,6.072-9.834,11.00-22.00,11.00L 154.00,484.00 c-12.144,0.00-22.00-4.928-22.00-11.00C 132.00,466.95, 141.856,462.00, 154.00,462.00c0.00,0.00, 44.00,0.00, 44.00-44.00c0.00-8.162-0.924-15.334-2.156-22.00L 44.00,396.00 c-24.288,0.00-44.00-19.712-44.00-44.00L0.00,44.00 c0.00-24.288, 19.712-44.00, 44.00-44.00l 396.00,0.00 c 24.288,0.00, 44.00,19.712, 44.00,44.00l0.00,308.00 C 484.00,376.288, 464.288,396.00, 440.00,396.00z M 440.00,44.00L 44.00,44.00 l0.00,264.00 l 396.00,0.00 L 440.00,44.00 z" ></path></svg>