<?xml version="1.0" encoding="utf-8"?>
<!-- Generated by IcoMoon.io -->
<!DOCTYPE svg PUBLIC "-//W3C//DTD SVG 1.1//EN" "http://www.w3.org/Graphics/SVG/1.1/DTD/svg11.dtd">
<svg version="1.1" xmlns="http://www.w3.org/2000/svg" xmlns:xlink="http://www.w3.org/1999/xlink" width="512" height="512" viewBox="0 0 512 512" fill="#919191">
<g id="icomoon-ignore">
</g>
<path d="M384 352h-50.745l-80-80 80-80h50.745v80l112-112-112-112v80h-64c-8.487 0-16.626 3.372-22.627 9.373l-89.373 89.372-89.373-89.373c-6-6-14.14-9.372-22.627-9.372h-96v64h82.745l80 80-80 80h-82.745v64h96c8.487 0 16.626-3.371 22.627-9.373l89.373-89.372 89.373 89.372c6.001 6.002 14.14 9.373 22.627 9.373h64v80l112-112-112-112v80z"></path>
</svg>
