<?xml version="1.0" encoding="utf-8"?> <!-- Generator: IcoMoon.io --> <!DOCTYPE svg PUBLIC "-//W3C//DTD SVG 1.1//EN" "http://www.w3.org/Graphics/SVG/1.1/DTD/svg11.dtd"> <svg width="512" height="512" viewBox="0 0 512 512" xmlns="http://www.w3.org/2000/svg" xmlns:xlink="http://www.w3.org/1999/xlink" fill="#919191"><path d="M 448.00,0.00L 64.00,0.00 C 55.168,0.00, 48.00,7.168, 48.00,16.00l0.00,96.00 c0.00,8.832, 7.168,16.00, 16.00,16.00l 16.00,0.00 c 8.832,0.00, 16.00-7.168, 16.00-16.00l 32.00-48.00l 96.00,0.00 l0.00,384.00 l-80.00,32.00c-8.832,0.00-16.00,7.152-16.00,16.00s 7.168,16.00, 16.00,16.00l 224.00,0.00 c 8.848,0.00, 16.00-7.152, 16.00-16.00s-7.152-16.00-16.00-16.00l-80.00-32.00L 288.00,64.00 l 96.00,0.00 l 32.00,48.00c0.00,8.832, 7.152,16.00, 16.00,16.00l 16.00,0.00 c 8.848,0.00, 16.00-7.168, 16.00-16.00L 464.00,16.00 C 464.00,7.168, 456.848,0.00, 448.00,0.00z" ></path></svg>