<?xml version="1.0" encoding="utf-8"?> <!-- Generator: IcoMoon.io --> <!DOCTYPE svg PUBLIC "-//W3C//DTD SVG 1.1//EN" "http://www.w3.org/Graphics/SVG/1.1/DTD/svg11.dtd"> <svg width="512" height="512" viewBox="0 0 512 512" xmlns="http://www.w3.org/2000/svg" xmlns:xlink="http://www.w3.org/1999/xlink" fill="#919191"><path d="M 256.16,128.16l-64.00,0.00 l0.00,64.00 l-64.00,0.00 l0.00,64.00 l 64.00,0.00 l0.00,64.00 l 64.00,0.00 l0.00-64.00 l 64.00,0.00 l0.00-64.00 l-64.00,0.00 L 256.16,128.16 z M 500.32,444.576l-92.448-92.448 c 25.344-36.288, 40.32-80.352, 40.32-127.968c0.00-123.712-100.32-224.00-224.00-224.00s-224.00,100.288-224.00,224.00c0.00,123.712, 100.288,224.00, 224.00,224.00c 47.616,0.00, 91.712-14.976, 128.00-40.32 l 92.448,92.448c 15.36,15.36, 40.32,15.36, 55.68,0.00S 515.68,460.00, 500.32,444.576z M 224.16,384.192c-88.352,0.00-160.00-71.616-160.00-160.00c0.00-88.384, 71.648-160.00, 160.00-160.00 c 88.384,0.00, 160.00,71.616, 160.00,160.00C 384.192,312.576, 312.576,384.192, 224.16,384.192z" ></path></svg>